# Tunnel Scanner Stage 1 ring
# +Y longitudinal, alpha=0 at +Z crown, alpha positive toward +X
o K
v -0.533697225 -0.521062292 2.952146214
v 0.533697225 -0.521062292 2.952146214
v -0.516767069 0.521062292 2.955156814
v 0.516767069 0.521062292 2.955156814
v -0.595961902 -0.521062292 3.296563273
v 0.595961902 -0.521062292 3.296563273
v -0.577056561 0.521062292 3.299925109
v 0.577056561 0.521062292 3.299925109
f 1 3 4 2
f 5 6 8 7
f 1 5 7 3
f 2 4 8 6
f 1 2 6 5
f 3 7 8 4
o B1
v 0.533697225 -0.521062292 2.952146214
v 2.955259326 -0.521062292 0.516180508
v 0.516767069 0.521062292 2.955156814
v 2.958169470 0.521062292 0.499232796
v 0.595961902 -0.521062292 3.296563273
v 3.300039581 -0.521062292 0.576401567
v 0.577056561 0.521062292 3.299925109
v 3.303289242 0.521062292 0.557476622
f 9 11 12 10
f 13 14 16 15
f 9 13 15 11
f 10 12 16 14
f 9 10 14 13
f 11 15 16 12
o A1
v 2.955259326 -0.521062292 0.516180508
v 1.647179658 -0.521062292 -2.507349033
v 2.958169470 0.521062292 0.499232796
v 1.642386009 0.521062292 -2.510491625
v 3.300039581 -0.521062292 0.576401567
v 1.839350618 -0.521062292 -2.799873087
v 3.303289242 0.521062292 0.557476622
v 1.833997710 0.521062292 -2.803382314
f 17 19 20 18
f 21 22 24 23
f 17 21 23 19
f 18 20 24 22
f 17 18 22 21
f 19 23 24 20
o A2
v 1.647179658 -0.521062292 -2.507349033
v -1.647179658 -0.521062292 -2.507349033
v 1.642386009 0.521062292 -2.510491625
v -1.642386009 0.521062292 -2.510491625
v 1.839350618 -0.521062292 -2.799873087
v -1.839350618 -0.521062292 -2.799873087
v 1.833997710 0.521062292 -2.803382314
v -1.833997710 0.521062292 -2.803382314
f 25 27 28 26
f 29 30 32 31
f 25 29 31 27
f 26 28 32 30
f 25 26 30 29
f 27 31 32 28
o A3
v -1.647179658 -0.521062292 -2.507349033
v -2.955259326 -0.521062292 0.516180508
v -1.642386009 0.521062292 -2.510491625
v -2.958169470 0.521062292 0.499232796
v -1.839350618 -0.521062292 -2.799873087
v -3.300039581 -0.521062292 0.576401567
v -1.833997710 0.521062292 -2.803382314
v -3.303289242 0.521062292 0.557476622
f 33 35 36 34
f 37 38 40 39
f 33 37 39 35
f 34 36 40 38
f 33 34 38 37
f 35 39 40 36
o B2
v -2.955259326 -0.521062292 0.516180508
v -0.533697225 -0.521062292 2.952146214
v -2.958169470 0.521062292 0.499232796
v -0.516767069 0.521062292 2.955156814
v -3.300039581 -0.521062292 0.576401567
v -0.595961902 -0.521062292 3.296563273
v -3.303289242 0.521062292 0.557476622
v -0.577056561 0.521062292 3.299925109
f 41 43 44 42
f 45 46 48 47
f 41 45 47 43
f 42 44 48 46
f 41 42 46 45
f 43 47 48 44
