# Tunnel Scanner Stage 4 prescribed-joint reconstruction
# radial joints: paper-literal outer ribs at R..R+t_joi
# circumferential joints: provisional outer-collar extrapolation
o K
v -0.533697225 -0.675000000 2.952146214
v 0.533697225 -0.675000000 2.952146214
v -0.516767069 0.675000000 2.955156814
v 0.516767069 0.675000000 2.955156814
v -0.595961902 -0.675000000 3.296563273
v 0.595961902 -0.675000000 3.296563273
v -0.577056561 0.675000000 3.299925109
v 0.577056561 0.675000000 3.299925109
f 1 3 4 2
f 5 6 8 7
f 1 5 7 3
f 2 4 8 6
f 1 2 6 5
f 3 7 8 4
o B1
v 0.533697225 -0.675000000 2.952146214
v 2.955259326 -0.675000000 0.516180508
v 0.516767069 0.675000000 2.955156814
v 2.958169470 0.675000000 0.499232796
v 0.595961902 -0.675000000 3.296563273
v 3.300039581 -0.675000000 0.576401567
v 0.577056561 0.675000000 3.299925109
v 3.303289242 0.675000000 0.557476622
f 9 11 12 10
f 13 14 16 15
f 9 13 15 11
f 10 12 16 14
f 9 10 14 13
f 11 15 16 12
o A1
v 2.955259326 -0.675000000 0.516180508
v 1.647179658 -0.675000000 -2.507349033
v 2.958169470 0.675000000 0.499232796
v 1.642386009 0.675000000 -2.510491625
v 3.300039581 -0.675000000 0.576401567
v 1.839350618 -0.675000000 -2.799873087
v 3.303289242 0.675000000 0.557476622
v 1.833997710 0.675000000 -2.803382314
f 17 19 20 18
f 21 22 24 23
f 17 21 23 19
f 18 20 24 22
f 17 18 22 21
f 19 23 24 20
o A2
v 1.647179658 -0.675000000 -2.507349033
v -1.647179658 -0.675000000 -2.507349033
v 1.642386009 0.675000000 -2.510491625
v -1.642386009 0.675000000 -2.510491625
v 1.839350618 -0.675000000 -2.799873087
v -1.839350618 -0.675000000 -2.799873087
v 1.833997710 0.675000000 -2.803382314
v -1.833997710 0.675000000 -2.803382314
f 25 27 28 26
f 29 30 32 31
f 25 29 31 27
f 26 28 32 30
f 25 26 30 29
f 27 31 32 28
o A3
v -1.647179658 -0.675000000 -2.507349033
v -2.955259326 -0.675000000 0.516180508
v -1.642386009 0.675000000 -2.510491625
v -2.958169470 0.675000000 0.499232796
v -1.839350618 -0.675000000 -2.799873087
v -3.300039581 -0.675000000 0.576401567
v -1.833997710 0.675000000 -2.803382314
v -3.303289242 0.675000000 0.557476622
f 33 35 36 34
f 37 38 40 39
f 33 37 39 35
f 34 36 40 38
f 33 34 38 37
f 35 39 40 36
o B2
v -2.955259326 -0.675000000 0.516180508
v -0.533697225 -0.675000000 2.952146214
v -2.958169470 0.675000000 0.499232796
v -0.516767069 0.675000000 2.955156814
v -3.300039581 -0.675000000 0.576401567
v -0.595961902 -0.675000000 3.296563273
v -3.303289242 0.675000000 0.557476622
v -0.577056561 0.675000000 3.299925109
f 41 43 44 42
f 45 46 48 47
f 41 45 47 43
f 42 44 48 46
f 41 42 46 45
f 43 47 48 44
o radial_joint_K_B1
v 0.578323230 -0.675000000 3.299703357
v 0.613583527 -0.675000000 3.293328902
v 0.559400181 0.675000000 3.302964038
v 0.594696436 0.675000000 3.296791796
v 0.588851258 -0.675000000 3.357939159
v 0.624111561 -0.675000000 3.351564703
v 0.569594234 0.675000000 3.361259229
v 0.604890495 0.675000000 3.355086986
f 49 51 52 50
f 53 54 56 55
f 49 53 55 51
f 50 52 56 54
f 49 50 54 53
f 51 55 56 52
o radial_joint_B1_A1
v 3.296909769 -0.675000000 0.594042064
v 3.303075005 -0.675000000 0.558744584
v 3.300260595 0.675000000 0.575134769
v 3.306223409 0.675000000 0.539802530
v 3.355206981 -0.675000000 0.604224553
v 3.361372218 -0.675000000 0.568927067
v 3.358615215 0.675000000 0.584982937
v 3.364578029 0.675000000 0.549650692
f 57 59 60 58
f 61 62 64 63
f 57 61 63 59
f 58 60 64 62
f 57 58 62 61
f 59 63 64 60
o radial_joint_A1_A2
v 1.854298144 -0.675000000 -2.789996128
v 1.824350484 -0.675000000 -2.809669965
v 1.848964080 0.675000000 -2.793533932
v 1.818978884 0.675000000 -2.813150515
v 1.886791397 -0.675000000 -2.839457592
v 1.856843732 -0.675000000 -2.859131433
v 1.881362771 0.675000000 -2.843057390
v 1.851377570 0.675000000 -2.862673975
f 65 67 68 66
f 69 70 72 71
f 65 69 71 67
f 66 68 72 70
f 65 66 70 69
f 67 71 72 68
o radial_joint_A2_A3
v -1.824350484 -0.675000000 -2.809669965
v -1.854298144 -0.675000000 -2.789996128
v -1.818978884 0.675000000 -2.813150515
v -1.848964080 0.675000000 -2.793533932
v -1.856843732 -0.675000000 -2.859131433
v -1.886791397 -0.675000000 -2.839457592
v -1.851377570 0.675000000 -2.862673975
v -1.881362771 0.675000000 -2.843057390
f 73 75 76 74
f 77 78 80 79
f 73 77 79 75
f 74 76 80 78
f 73 74 78 77
f 75 79 80 76
o radial_joint_A3_B2
v -3.303075005 -0.675000000 0.558744584
v -3.296909769 -0.675000000 0.594042064
v -3.306223409 0.675000000 0.539802530
v -3.300260595 0.675000000 0.575134769
v -3.361372218 -0.675000000 0.568927067
v -3.355206981 -0.675000000 0.604224553
v -3.364578029 0.675000000 0.549650692
v -3.358615215 0.675000000 0.584982937
f 81 83 84 82
f 85 86 88 87
f 81 85 87 83
f 82 84 88 86
f 81 82 86 85
f 83 87 88 84
o radial_joint_B2_K
v -0.613583527 -0.675000000 3.293328902
v -0.578323230 -0.675000000 3.299703357
v -0.594696436 0.675000000 3.296791796
v -0.559400181 0.675000000 3.302964038
v -0.624111561 -0.675000000 3.351564703
v -0.588851258 -0.675000000 3.357939159
v -0.604890495 0.675000000 3.355086986
v -0.569594234 0.675000000 3.361259229
f 89 91 92 90
f 93 94 96 95
f 89 93 95 91
f 90 92 96 94
f 89 90 94 93
f 91 95 96 92
o circumferential_back_K
v -0.577056561 0.675000000 3.299925109
v 0.577056561 0.675000000 3.299925109
v -0.577056561 0.710832032 3.299925109
v 0.577056561 0.710832032 3.299925109
v -0.587250474 0.675000000 3.358219480
v 0.587250474 0.675000000 3.358219480
v -0.587250474 0.710832032 3.358219480
v 0.587250474 0.710832032 3.358219480
f 97 99 100 98
f 101 102 104 103
f 97 101 103 99
f 98 100 104 102
f 97 98 102 101
f 99 103 104 100
o circumferential_back_B1
v 0.577056561 0.675000000 3.299925109
v 3.303289242 0.675000000 0.557476622
v 0.577056561 0.710832032 3.299925109
v 3.303289242 0.710832032 0.557476622
v 0.587250474 0.675000000 3.358219480
v 3.361643042 0.675000000 0.567324648
v 0.587250474 0.710832032 3.358219480
v 3.361643042 0.710832032 0.567324648
f 105 107 108 106
f 109 110 112 111
f 105 109 111 107
f 106 108 112 110
f 105 106 110 109
f 107 111 112 108
o circumferential_back_A1
v 3.303289242 0.675000000 0.557476622
v 1.833997710 0.675000000 -2.803382314
v 3.303289242 0.710832032 0.557476622
v 1.833997710 0.710832032 -2.803382314
v 3.361643042 0.675000000 0.567324648
v 1.866395943 0.675000000 -2.852905077
v 3.361643042 0.710832032 0.567324648
v 1.866395943 0.710832032 -2.852905077
f 113 115 116 114
f 117 118 120 119
f 113 117 119 115
f 114 116 120 118
f 113 114 118 117
f 115 119 120 116
o circumferential_back_A2
v 1.833997710 0.675000000 -2.803382314
v -1.833997710 0.675000000 -2.803382314
v 1.833997710 0.710832032 -2.803382314
v -1.833997710 0.710832032 -2.803382314
v 1.866395943 0.675000000 -2.852905077
v -1.866395943 0.675000000 -2.852905077
v 1.866395943 0.710832032 -2.852905077
v -1.866395943 0.710832032 -2.852905077
f 121 123 124 122
f 125 126 128 127
f 121 125 127 123
f 122 124 128 126
f 121 122 126 125
f 123 127 128 124
o circumferential_back_A3
v -1.833997710 0.675000000 -2.803382314
v -3.303289242 0.675000000 0.557476622
v -1.833997710 0.710832032 -2.803382314
v -3.303289242 0.710832032 0.557476622
v -1.866395943 0.675000000 -2.852905077
v -3.361643042 0.675000000 0.567324648
v -1.866395943 0.710832032 -2.852905077
v -3.361643042 0.710832032 0.567324648
f 129 131 132 130
f 133 134 136 135
f 129 133 135 131
f 130 132 136 134
f 129 130 134 133
f 131 135 136 132
o circumferential_back_B2
v -3.303289242 0.675000000 0.557476622
v -0.577056561 0.675000000 3.299925109
v -3.303289242 0.710832032 0.557476622
v -0.577056561 0.710832032 3.299925109
v -3.361643042 0.675000000 0.567324648
v -0.587250474 0.675000000 3.358219480
v -3.361643042 0.710832032 0.567324648
v -0.587250474 0.710832032 3.358219480
f 137 139 140 138
f 141 142 144 143
f 137 141 143 139
f 138 140 144 142
f 137 138 142 141
f 139 143 144 140
