# Tunnel Scanner Stage 3 deformed ring
# segments are rigid transforms; joint_* objects bridge displacement-induced gaps
o K
v -0.533697225 -0.675000000 2.952146214
v 0.533697225 -0.675000000 2.952146214
v -0.516767069 0.675000000 2.955156814
v 0.516767069 0.675000000 2.955156814
v -0.595961902 -0.675000000 3.296563273
v 0.595961902 -0.675000000 3.296563273
v -0.577056561 0.675000000 3.299925109
v 0.577056561 0.675000000 3.299925109
f 1 3 4 2
f 5 6 8 7
f 1 5 7 3
f 2 4 8 6
f 1 2 6 5
f 3 7 8 4
o B1
v 0.534557056 -0.675000000 2.954771658
v 2.961540653 -0.675000000 0.524207412
v 0.517620235 0.675000000 2.957744528
v 2.964488551 0.675000000 0.507266226
v 0.596054192 -0.675000000 3.299326591
v 3.306185875 -0.675000000 0.585196517
v 0.577141408 0.675000000 3.302646297
v 3.309477695 0.675000000 0.566278859
f 9 11 12 10
f 13 14 16 15
f 9 13 15 11
f 10 12 16 14
f 9 10 14 13
f 11 15 16 12
o A1
v 2.956564063 -0.675000000 0.523627991
v 1.650412950 -0.675000000 -2.500735178
v 2.959485015 0.675000000 0.506682138
v 1.645621305 0.675000000 -2.503880826
v 3.301305841 -0.675000000 0.584068925
v 1.842770431 -0.675000000 -2.793136613
v 3.304567571 0.675000000 0.565146056
v 1.837419762 0.675000000 -2.796649253
f 17 19 20 18
f 21 22 24 23
f 17 21 23 19
f 18 20 24 22
f 17 18 22 21
f 19 23 24 20
o A2
v 1.647592259 -0.675000000 -2.497123569
v -1.646754525 -0.675000000 -2.506210506
v 1.642807296 0.675000000 -2.500279371
v -1.641952225 0.675000000 -2.509339864
v 1.840569367 -0.675000000 -2.789116439
v -1.838117875 -0.675000000 -2.799263519
v 1.835226158 0.675000000 -2.792640418
v -1.832755307 0.675000000 -2.802757968
f 25 27 28 26
f 29 30 32 31
f 25 29 31 27
f 26 28 32 30
f 25 26 30 29
f 27 31 32 28
o A3
v -1.645779917 -0.675000000 -2.505037592
v -2.959166582 -0.675000000 0.516190432
v -1.640980757 0.675000000 -2.508171762
v -2.962046963 0.675000000 0.499237636
v -1.837436938 -0.675000000 -2.797898628
v -3.304052047 -0.675000000 0.575805999
v -1.832077876 0.675000000 -2.801398451
v -3.307268473 0.675000000 0.556875377
f 33 35 36 34
f 37 38 40 39
f 33 37 39 35
f 34 36 40 38
f 33 34 38 37
f 35 39 40 36
o B2
v -2.951393322 -0.675000000 0.514852653
v -0.533882998 -0.675000000 2.954839490
v -2.954275297 0.675000000 0.497900128
v -0.516957869 0.675000000 2.957878222
v -3.296273185 -0.675000000 0.574500625
v -0.596719989 -0.675000000 3.299152592
v -3.299491389 0.675000000 0.555570305
v -0.577820262 0.675000000 3.302545843
f 41 43 44 42
f 45 46 48 47
f 41 45 47 43
f 42 44 48 46
f 41 42 46 45
f 43 47 48 44
o joint_K_B1
v 0.533697225 -0.675000000 2.952146214
v 0.534557056 -0.675000000 2.954771658
v 0.516767069 0.675000000 2.955156814
v 0.517620235 0.675000000 2.957744528
v 0.595961902 -0.675000000 3.296563273
v 0.596054192 -0.675000000 3.299326591
v 0.577056561 0.675000000 3.299925109
v 0.577141408 0.675000000 3.302646297
f 49 51 52 50
f 53 54 56 55
f 49 53 55 51
f 50 52 56 54
f 49 50 54 53
f 51 55 56 52
o joint_B1_A1
v 2.961540653 -0.675000000 0.524207412
v 2.956564063 -0.675000000 0.523627991
v 2.964488551 0.675000000 0.507266226
v 2.959485015 0.675000000 0.506682138
v 3.306185875 -0.675000000 0.585196517
v 3.301305841 -0.675000000 0.584068925
v 3.309477695 0.675000000 0.566278859
v 3.304567571 0.675000000 0.565146056
f 57 58 60 59
f 61 63 64 62
f 57 59 63 61
f 58 62 64 60
f 57 61 62 58
f 59 60 64 63
o joint_A1_A2
v 1.650412950 -0.675000000 -2.500735178
v 1.647592259 -0.675000000 -2.497123569
v 1.645621305 0.675000000 -2.503880826
v 1.642807296 0.675000000 -2.500279371
v 1.842770431 -0.675000000 -2.793136613
v 1.840569367 -0.675000000 -2.789116439
v 1.837419762 0.675000000 -2.796649253
v 1.835226158 0.675000000 -2.792640418
f 65 66 68 67
f 69 71 72 70
f 65 67 71 69
f 66 70 72 68
f 65 69 70 66
f 67 68 72 71
o joint_A2_A3
v -1.646754525 -0.675000000 -2.506210506
v -1.645779917 -0.675000000 -2.505037592
v -1.641952225 0.675000000 -2.509339864
v -1.640980757 0.675000000 -2.508171762
v -1.838117875 -0.675000000 -2.799263519
v -1.837436938 -0.675000000 -2.797898628
v -1.832755307 0.675000000 -2.802757968
v -1.832077876 0.675000000 -2.801398451
f 73 75 76 74
f 77 78 80 79
f 73 77 79 75
f 74 76 80 78
f 73 74 78 77
f 75 79 80 76
o joint_A3_B2
v -2.959166582 -0.675000000 0.516190432
v -2.951393322 -0.675000000 0.514852653
v -2.962046963 0.675000000 0.499237636
v -2.954275297 0.675000000 0.497900128
v -3.304052047 -0.675000000 0.575805999
v -3.296273185 -0.675000000 0.574500625
v -3.307268473 0.675000000 0.556875377
v -3.299491389 0.675000000 0.555570305
f 81 82 84 83
f 85 87 88 86
f 81 83 87 85
f 82 86 88 84
f 81 85 86 82
f 83 84 88 87
o joint_B2_K
v -0.533882998 -0.675000000 2.954839490
v -0.533697225 -0.675000000 2.952146214
v -0.516957869 0.675000000 2.957878222
v -0.516767069 0.675000000 2.955156814
v -0.596719989 -0.675000000 3.299152592
v -0.595961902 -0.675000000 3.296563273
v -0.577820262 0.675000000 3.302545843
v -0.577056561 0.675000000 3.299925109
f 89 90 92 91
f 93 95 96 94
f 89 91 95 93
f 90 94 96 92
f 89 93 94 90
f 91 92 96 95
